<?xml version="1.0" encoding="utf-8"?>
<!-- Generator: Adobe Illustrator 19.1.0, SVG Export Plug-In . SVG Version: 6.00 Build 0)  -->
<svg version="1.1" id="Layer_1" xmlns="http://www.w3.org/2000/svg" xmlns:xlink="http://www.w3.org/1999/xlink" x="0px" y="0px"
	 viewBox="0 0 300 300" style="enable-background:new 0 0 300 300;" xml:space="preserve">
<g>
	<path d="M147.2,296.8c-77,0-139.7-62.7-139.7-139.7c0-77,62.7-139.7,139.7-139.7c77,0,139.7,62.7,139.7,139.7
		C286.9,234.1,224.2,296.8,147.2,296.8z M147.2,24.5C74.1,24.5,14.6,84,14.6,157.1s59.5,132.7,132.7,132.7s132.7-59.5,132.7-132.7
		S220.4,24.5,147.2,24.5z"/>
</g>
<polygon points="236.8,153.6 150.7,153.6 150.7,67.5 143.7,67.5 143.7,153.6 57.6,153.6 57.6,160.6 143.7,160.6 143.7,246.7 
	150.7,246.7 150.7,160.6 236.8,160.6 "/>
</svg>
